<svg width="35" height="35" viewBox="0 0 35 35" fill="none" xmlns="http://www.w3.org/2000/svg">
<path d="M2.404 27.6237L2.40442 27.6229L6.10629 20.3449L6.10653 20.3444C7.09136 18.4066 7.09136 16.097 6.10653 14.1592L6.10621 14.1585L2.40279 6.87928C2.40273 6.87915 2.40267 6.87903 2.4026 6.8789C2.40256 6.87882 2.40251 6.87873 2.40247 6.87864C1.833 5.75758 1.88348 4.56662 2.50777 3.54818L2.50787 3.54803C3.16296 2.47906 4.30845 1.84348 5.45337 1.84348C5.97594 1.84348 6.5063 1.96882 7.04042 2.24059L7.04062 2.2407L14.3187 5.94257L14.3197 5.94311C15.274 6.42758 16.3409 6.68424 17.4127 6.68424C18.4844 6.68424 19.5514 6.42758 20.5056 5.94311L20.5068 5.94249L27.783 2.24062L27.783 2.24059C28.3172 1.96882 28.8475 1.84348 29.3701 1.84348C30.515 1.84348 31.6605 2.47906 32.3156 3.54803L32.3157 3.54818C32.9408 4.5679 32.9915 5.75859 32.4213 6.87796L32.4209 6.87878L28.7191 14.1568L28.7188 14.1573C27.734 16.0951 27.734 18.4047 28.7188 20.3425L28.7191 20.343L32.4207 27.6205C32.4208 27.6207 32.4208 27.6208 32.4209 27.621C32.9905 28.7421 32.94 29.9331 32.3157 30.9516C31.66 32.0198 30.5139 32.6563 29.3701 32.6563C28.8475 32.6563 28.3172 32.531 27.783 32.2592L27.7828 32.2591L20.5048 28.5572L20.5038 28.5567C19.5495 28.0722 18.4825 27.8155 17.4108 27.8155C16.3391 27.8155 15.2721 28.0722 14.3178 28.5567L14.3168 28.5572L7.03875 32.2591L7.03855 32.2592C6.50475 32.5308 5.9747 32.6562 5.45244 32.6563C4.30826 32.656 3.16451 32.0208 2.50929 30.9529C1.88456 29.9333 1.83394 28.7429 2.404 27.6237Z" stroke="#127E83" stroke-width="3.18696"/>
</svg>
